<svg width="338" height="168" viewBox="0 0 338 168" fill="none" xmlns="http://www.w3.org/2000/svg">
<path d="M338 68.096V40.075H325.662V3.25541H294.381V40.075H276.931C272.121 37.9188 266.351 36.8336 259.609 36.8336C253.235 36.8336 247.704 37.8389 243.012 39.8448C238.32 41.8506 234.438 44.6316 231.371 48.183C228.3 51.7343 226.01 55.8635 224.507 60.5705C224.38 60.9698 224.262 61.3784 224.149 61.7824C223.787 60.1054 223.358 58.5364 222.859 57.0943C221.059 51.9222 218.515 47.8307 215.213 44.8195C211.91 41.8084 207.972 39.7226 203.397 38.567C198.818 37.4067 193.811 36.8289 188.365 36.8289C184.77 36.8289 180.893 37.3316 176.724 38.3322C172.555 39.3374 168.673 41.3433 165.083 44.3545C161.488 47.3656 158.478 51.6122 156.047 57.0896C154.248 61.1436 153.117 66.1888 152.651 72.2204C152.443 70.9145 152.217 69.6509 151.967 68.4389C150.403 60.7959 148.029 54.6233 144.844 49.9117C141.655 45.2047 137.721 41.8459 133.029 39.8401C128.337 37.8342 122.863 36.8289 116.607 36.8289C109.54 36.8289 103.487 38.0268 98.4458 40.4179C93.405 42.8136 89.264 46.6328 86.0229 51.88C82.777 57.1318 80.4026 63.9198 78.8998 72.258C78.8197 72.6949 78.7444 73.1459 78.669 73.5921C78.4994 72.2956 78.3157 71.0366 78.1178 69.8247C76.7846 61.7214 74.9049 55.234 72.4693 50.372C70.0384 45.5101 67.0234 42.0339 63.4336 39.9528C59.8438 37.8671 55.7877 36.8242 51.2698 36.8242C46.752 36.8242 42.8984 38.0973 39.3651 40.6434C35.8319 43.1895 33.2549 47.7085 31.6344 54.1912H31.2858V0H0V165.35H30.2352V148.213H30.5838C32.553 155.161 35.2147 160.178 38.5784 163.264C41.9373 166.35 46.3986 167.896 51.9576 167.896C62.3831 167.896 69.6804 162.418 73.8543 151.454C75.8377 146.235 77.3499 139.616 78.391 131.598C78.4664 132.124 78.5465 132.645 78.6313 133.162C79.9598 141.5 82.1928 148.255 85.3209 153.427C88.449 158.599 92.5617 162.306 97.659 164.542C102.756 166.778 109.069 167.901 116.602 167.901C129.576 167.901 138.904 164.002 144.581 156.204C146.766 153.197 148.547 149.622 149.928 145.479C149.998 145.85 150.064 146.226 150.14 146.592C151.068 151.074 152.57 154.931 154.657 158.172C156.744 161.413 159.434 163.847 162.737 165.467C166.039 167.088 170.062 167.901 174.816 167.901C179.569 167.901 183.998 166.51 187.762 163.734C191.526 160.953 194.277 156.786 196.015 151.229H196.364C196.595 153.855 196.826 156.326 197.061 158.642C197.292 160.958 197.697 163.198 198.277 165.359H228.512C227.235 162.118 226.425 158.261 226.081 153.78C225.954 152.15 225.85 150.426 225.77 148.617C227.094 152.013 228.785 154.978 230.858 157.486C236.591 164.434 246.004 167.905 259.096 167.905C265.003 167.905 270.303 166.98 274.995 165.124C279.687 163.273 283.626 160.492 286.81 156.786C289.995 153.08 292.459 148.683 294.197 143.586C294.343 143.154 294.48 142.707 294.612 142.266C294.847 145.874 295.262 148.979 295.865 151.572C296.85 155.818 298.414 159.022 300.557 161.183C302.701 163.349 305.452 164.697 308.811 165.237C312.17 165.777 316.221 166.05 320.975 166.05C323.636 166.05 326.42 165.932 329.318 165.702C332.21 165.472 335.108 165.354 338.005 165.354V137.564H333.138C330.59 137.564 328.705 136.831 327.49 135.365C326.274 133.9 325.667 131.391 325.667 127.84V68.0913H338.005L338 68.096ZM48.4809 119.511C48.2453 123.992 47.8119 127.581 47.176 130.278C46.54 132.979 45.6402 134.872 44.4813 135.952C43.3224 137.033 41.8148 137.573 39.9634 137.573C38.2251 137.573 36.7741 137.033 35.6199 135.952C34.461 134.872 33.5612 132.983 32.9252 130.278C32.2892 127.577 31.8511 123.988 31.6202 119.511C31.3847 115.034 31.2716 109.477 31.2716 102.839C31.2716 96.2015 31.3847 90.4141 31.6202 85.9326C31.8511 81.4559 32.2845 77.8669 32.9252 75.1658C33.5612 72.4647 34.461 70.5716 35.6199 69.4911C36.7788 68.4107 38.2251 67.8705 39.9634 67.8705C41.8148 67.8705 43.3224 68.4154 44.4813 69.4911C45.6355 70.5716 46.5353 72.4647 47.176 75.1658C47.8119 77.8669 48.2453 81.4559 48.4809 85.9326C48.7117 90.4141 48.8295 96.0465 48.8295 102.839C48.8295 109.632 48.7117 115.039 48.4809 119.511ZM107.91 81.531C107.91 74.8934 108.518 70.0314 109.733 66.9404C110.949 63.8541 113.177 62.3086 116.423 62.3086C119.669 62.3086 122.071 63.8541 123.287 66.9404C124.502 70.0314 125.11 74.8934 125.11 81.531V87.0882H107.905V81.531H107.91ZM125.284 121.362C125.284 129.855 124.502 135.605 122.938 138.616C121.374 141.627 119.202 143.13 116.423 143.13C114.223 143.13 112.254 142.012 110.515 139.771C108.777 137.535 107.91 133.021 107.91 126.224V109.782H152.033C151.2 111.84 150.535 114.076 150.05 116.5C149.744 118.022 149.494 119.647 149.296 121.362H125.289H125.284ZM196.354 119.971C196.354 126.919 195.601 132.091 194.093 135.487C192.586 138.884 190.098 140.584 186.622 140.584C184.304 140.584 182.452 139.349 181.063 136.878C179.673 134.412 178.976 131.09 178.976 126.919C178.976 122.747 179.437 119.393 180.365 116.847C181.293 114.301 182.971 112.253 185.406 110.712C187.724 109.322 189.839 108.439 191.747 108.049C193.66 107.664 195.078 106.625 196.006 104.92H196.354V119.971ZM194.272 82.8041C192.882 84.8898 190.508 86.4729 187.149 87.5533L174.811 91.4899C169.827 93.0354 165.658 94.9285 162.299 97.1645C158.94 99.4053 156.273 102.106 154.309 105.268V97.0518C154.309 90.3859 154.04 84.3683 153.508 78.9896H179.503C179.616 72.352 180.37 67.9128 181.76 65.672C183.15 63.436 185.35 62.3133 188.365 62.3133C193.693 62.3133 196.359 66.1747 196.359 73.8928C196.359 77.7542 195.662 80.723 194.272 82.8088V82.8041ZM264.909 140.349C263.109 142.2 260.999 143.13 258.568 143.13C255.671 143.13 253.471 141.665 251.963 138.729C251.153 137.338 250.573 135.567 250.225 133.402C249.876 131.241 249.702 128.925 249.702 126.454H225.549V94.8768C225.577 94.9426 225.605 95.0083 225.633 95.0741C227.895 99.9361 230.698 103.84 234.061 106.771C237.42 109.707 241.038 112.023 244.92 113.719C248.802 115.419 252.42 117.04 255.779 118.581C259.138 120.126 261.946 121.902 264.207 123.908C266.464 125.918 267.594 128.77 267.594 132.476C267.594 135.873 266.694 138.498 264.9 140.349H264.909ZM293.406 107.349C291.144 102.487 288.337 98.6302 284.978 95.7693C281.614 92.9132 277.996 90.7148 274.119 89.1693C270.237 87.6285 266.614 86.1581 263.26 84.7676C259.896 83.3772 257.093 81.7988 254.832 80.0184C252.576 78.2474 251.445 75.5839 251.445 72.0278C251.445 68.9415 252.199 66.5505 253.706 64.8499C255.209 63.1541 257.122 62.3039 259.439 62.3039C262.101 62.3039 264.16 63.2716 265.606 65.1976C267.052 67.1283 267.778 70.7971 267.778 76.1993H294.386V109.754C294.089 108.913 293.764 108.11 293.41 107.349H293.406Z" fill="white"/>
</svg>
