<svg width="326" height="77" viewBox="0 0 326 77" fill="none" xmlns="http://www.w3.org/2000/svg">
<g clip-path="url(#clip0_3485_162)">
<path d="M34.7299 59.642C32.4484 72.2135 24.3365 77 14.794 77C6.98987 77 1.7207 71.6535 -0.0175781 66L0.290242 65.6929H0.362671C1.77502 69.6306 5.95776 73.0082 12.9652 73.0082C19.4294 73.0082 24.6262 69.9376 26.2739 61.4483L29.1892 46.9081C24.4632 55.3071 18.7052 61.2135 12.0961 61.2135C5.48698 61.2135 1.50342 56.5714 1.50342 48.4795C1.50342 32.0608 12.6031 18.6223 26.0747 18.6223C29.6237 18.6223 33.2451 19.8867 35.4542 22.867L41.8279 19.7964H42.0633L34.7299 59.642ZM29.6962 44.5599L33.39 25.5402C32.9916 21.7652 30.4023 19.7964 26.7809 19.7964C17.7998 19.7964 9.76025 34.6437 9.76025 47.8473C9.76025 54.2956 11.571 57.1133 15.5183 57.1133C20.3167 57.1133 25.441 52.2365 29.6962 44.5419V44.5599Z" fill="white"/>
<path d="M42.6961 50.2857L49.6311 10.9278C50.2648 7.55008 49.3233 5.9064 47.585 4.17241L47.6574 3.77504C52.148 3.07061 55.371 2.13136 58.8476 0H59.2459L49.8665 52.6519C49.1603 56.5895 50.2648 57.9261 52.148 57.9261C53.4879 57.9261 54.9002 57.2217 56.3307 55.0903H56.4031L56.4756 55.3251C54.2665 59.4975 51.6772 61.2135 48.2912 61.2135C43.873 61.2135 41.3561 57.8358 42.6961 50.2857Z" fill="white"/>
<path d="M56.9473 44.7948C56.9473 31.4286 67.5037 18.6223 80.9029 18.6223C90.7532 18.6223 97.1993 25.2151 97.1993 35.2036C97.1993 48.5698 86.7153 61.2135 73.3342 61.2135C63.3391 61.2135 56.9473 54.8555 56.9473 44.7948ZM89.3952 31.5911C89.3952 24.1314 86.0091 19.6519 80.6494 19.6519C71.27 19.6519 64.6609 37.2447 64.6609 48.4072C64.6609 55.9573 68.2099 60.2742 73.479 60.2742C82.9309 60.2742 89.3952 42.826 89.3952 31.5911Z" fill="white"/>
<path d="M154.308 20.1215C154.308 20.5189 154.145 21.3859 154.072 22.0903C152.189 33.7948 142.411 49.3645 133.521 60.6716H126.749L124.703 35.3662L112.1 60.6716H105.563L99.4975 26.8046C98.8638 23.734 98.23 22.0903 96.0391 20.5911L96.1115 20.1215H110.851L110.778 20.5911C107.7 21.8555 106.36 23.4269 107.084 27.509L112.444 57.7636L124.576 33.2529L124.105 26.8046C123.797 23.5895 122.928 22.2529 120.647 20.5911L120.719 20.1215H135.531L135.458 20.5911C132.072 21.8555 131.529 23.8966 131.764 27.509L133.647 58.9376C141.759 48.4072 148.767 32.6929 148.857 20.1215H154.362H154.308Z" fill="white"/>
<path d="M167.382 50.2857L174.317 10.9278C174.95 7.55008 174.009 5.9064 172.271 4.17241L172.343 3.77504C176.834 3.07061 180.057 2.13136 183.533 0H183.931L174.552 52.6519C173.846 56.5895 174.95 57.9261 176.834 57.9261C178.173 57.9261 179.586 57.2217 181.016 55.0903H181.089L181.161 55.3251C178.952 59.4975 176.363 61.2135 172.977 61.2135C168.559 61.2135 166.042 57.8358 167.382 50.2857Z" fill="white"/>
<path d="M183.134 50.2857L186.593 30.3268C187.136 26.9491 186.194 25.3054 184.547 23.5714L184.619 23.1741C189.037 22.4696 192.26 21.5304 195.809 19.4893H196.117L190.287 52.6519C189.58 56.6617 190.685 57.9261 192.568 57.9261C193.98 57.9261 195.411 57.0591 196.66 55.0903H196.733L196.896 55.3251C194.614 59.4975 192.097 61.2135 188.385 61.2135C184.13 61.2135 181.776 57.6732 183.116 50.2857H183.134ZM189.508 7.08046C189.508 4.33498 191.953 1.66174 195.103 1.66174C197.457 1.66174 199.358 3.54023 199.358 6.14122C199.358 8.8867 196.914 11.5599 193.854 11.5599C191.409 11.5599 189.526 9.59114 189.526 7.08046H189.508Z" fill="white"/>
<path d="M234.486 55.1626L234.649 55.3251C232.205 59.8769 229.525 61.2135 225.904 61.2135C221.576 61.2135 219.53 58.3777 217.393 53.3563L212.667 42.6634C222.663 39.1232 229.923 33.7044 229.923 27.2562C229.923 24.7455 228.819 23.1741 226.7 23.1741C221.196 23.1741 213.392 32.8374 208.503 39.7553L205.823 54.6929C205.425 56.8966 205.588 59.335 207.706 60.1839L207.634 60.6535H194.234L194.307 60.1839C196.425 59.1544 197.693 56.9688 198.091 54.6929L205.895 11C206.366 8.09196 205.497 5.97866 203.614 4.24467L203.686 3.8473C208.34 3.14286 211.4 2.20362 215.021 0.162567H215.42L208.811 37.8769C214.804 29.8571 224.401 18.6223 231.734 18.6223C235.356 18.6223 237.257 20.1938 237.257 23.2644C237.257 28.5386 229.923 36.6305 219.693 40.9475L225.759 54.2233C226.537 55.7948 227.805 58.3054 229.851 58.3054C231.263 58.3054 232.694 57.3662 234.414 55.1626H234.486Z" fill="white"/>
<path d="M269.216 50.9902L269.452 51.2972C265.522 57.1133 259.692 61.1954 252.123 61.1954C242.436 61.1954 235.736 55.2168 235.736 44.7767C235.736 30.7061 246.22 18.6043 259.837 18.6043C267.55 18.6043 271.733 22.5419 271.733 27.9606C271.733 38.6535 257.392 42.8079 244.482 45.0115C245.116 52.092 249.045 57.0411 256.052 57.0411C260.471 57.0411 265.197 55.5419 269.216 50.9902ZM244.319 42.7537V44.3974C256.451 41.7241 265.504 36.2332 265.504 26.1724C265.504 21.8555 263.458 19.5796 259.511 19.5796C250.838 19.5796 244.301 32.5484 244.301 42.7537H244.319Z" fill="white"/>
<path d="M325.855 55.1626L326.018 55.3251C323.809 59.4072 321.292 61.3038 317.671 61.3038C313.416 61.3038 311.062 58.0887 312.076 51.9475L313.253 45.6618C308.364 54.693 302.153 61.2135 295.291 61.2135C288.428 61.2135 284.807 56.2644 284.807 48.0821C284.807 33.1445 295.906 18.6223 309.378 18.6223C312.927 18.6223 316.548 19.8867 318.757 22.867L325.131 19.7964H325.367L319.464 53.4286C318.993 56.1018 319.301 57.9803 321.836 57.9803C323.176 57.9803 324.516 57.1133 325.765 55.1445H325.837L325.855 55.1626ZM316.802 25.7028C316.404 21.7833 313.814 19.8145 310.102 19.8145C301.121 19.8145 293.082 35.6913 293.082 48.6601C293.082 54.3136 295.055 57.1494 298.677 57.1494C303.873 57.1494 309.306 51.4056 313.651 43.2414L316.802 25.7209V25.7028Z" fill="white"/>
</g>
<defs>
<clipPath id="clip0_3485_162">
<rect width="326" height="77" fill="white"/>
</clipPath>
</defs>
</svg>
