<svg width="24" height="24" viewBox="0 0 24 24" fill="none" xmlns="http://www.w3.org/2000/svg">
<g clip-path="url(#clip0_2120_164)">
<path d="M12 24C18.6274 24 24 18.6274 24 12C24 5.37258 18.6274 0 12 0C5.37258 0 0 5.37258 0 12C0 18.6274 5.37258 24 12 24Z" fill="white"/>
<path d="M15.861 5.40283H8.138C6.62718 5.40283 5.40234 6.62767 5.40234 8.13849V15.8614C5.40234 17.3723 6.62718 18.5971 8.138 18.5971H15.861C17.3718 18.5971 18.5966 17.3723 18.5966 15.8614V8.13849C18.5966 6.62767 17.3718 5.40283 15.861 5.40283ZM17.4395 15.8614C17.4395 16.7316 16.7316 17.44 15.861 17.44H8.138C7.26782 17.44 6.55945 16.7321 6.55945 15.8614V8.13849C6.55945 7.26831 7.26735 6.55993 8.138 6.55993H15.861C16.7311 6.55993 17.4395 7.26784 17.4395 8.13849V15.8614Z" fill="black"/>
<path d="M12.0001 8.54102C10.0899 8.54102 8.54102 10.0895 8.54102 12.0001C8.54102 13.9107 10.0895 15.4592 12.0001 15.4592C13.9103 15.4592 15.4592 13.9107 15.4592 12.0001C15.4592 10.0895 13.9107 8.54102 12.0001 8.54102ZM12.0001 14.3016C10.731 14.3016 9.69859 13.2691 9.69859 12.0001C9.69859 10.731 10.731 9.69859 12.0001 9.69859C13.2691 9.69859 14.3016 10.731 14.3016 12.0001C14.3016 13.2691 13.2691 14.3016 12.0001 14.3016Z" fill="black"/>
<path d="M15.5908 9.15025C16.0378 9.15025 16.4003 8.78783 16.4003 8.34075C16.4003 7.89368 16.0378 7.53125 15.5908 7.53125C15.1437 7.53125 14.7812 7.89368 14.7812 8.34075C14.7812 8.78783 15.1437 9.15025 15.5908 9.15025Z" fill="black"/>
</g>
<defs>
<clipPath id="clip0_2120_164">
<rect width="24" height="24" fill="white"/>
</clipPath>
</defs>
</svg>
