<svg width="24" height="24" viewBox="0 0 24 24" fill="none" xmlns="http://www.w3.org/2000/svg">
<g clip-path="url(#clip0_2120_175)">
<path d="M11.3657 13.6694C11.9349 13.7828 12.4772 13.5156 12.8319 12.9375C13.1508 12.4182 13.2994 11.8552 13.2383 11.3303C13.2383 11.0561 13.2307 10.8689 13.2411 10.6821C13.2481 10.5528 13.1973 10.5241 13.0793 10.5307C12.7524 10.5481 12.4255 10.5725 12.1042 10.6346C10.9556 10.8557 10.4664 11.3806 10.4114 12.4389C10.3836 12.9756 10.8408 13.5655 11.3657 13.6699V13.6694Z" fill="white"/>
<path d="M12 0C5.37253 0 0 5.37253 0 12C0 18.6275 5.37253 24 12 24C18.6275 24 24 18.6275 24 12C24 5.37253 18.6275 0 12 0ZM7.68862 11.6999C7.97507 10.6783 8.60913 9.97319 9.60348 9.59172C10.5503 9.2286 11.539 9.07432 12.5414 8.98401C12.6421 8.97507 12.7437 8.97131 12.8443 8.9619C13.077 8.94026 13.1933 8.80809 13.1933 8.56538V8.00423C13.1933 7.42192 12.8048 6.9699 12.2295 6.88241C11.4313 6.76105 10.7404 7.16228 10.4468 7.91722C10.2719 8.36783 10.2681 8.37582 9.78692 8.35748C9.22625 8.33631 8.66886 8.28081 8.11242 8.20414C7.93133 8.17921 7.87723 8.09078 7.85936 7.93509C7.8048 7.4619 7.94732 7.03857 8.20884 6.6571C8.94967 5.5762 10.0014 4.98024 11.2827 4.83584C12.2451 4.72719 13.2117 4.78457 14.1472 5.09078C15.2023 5.4365 15.7168 6.25494 16.0334 7.24553C16.056 7.31703 16.0437 7.40028 16.0437 7.47789C16.0437 9.09925 16.0456 10.7201 16.0414 12.3415C16.0414 12.4882 16.0748 12.6096 16.1571 12.7314C16.4008 13.0927 16.6294 13.4633 16.8387 13.8462C16.9229 14 16.929 14.1275 16.8006 14.2648C16.3354 14.7625 15.8198 15.199 15.2535 15.5762C15.0456 15.715 14.8537 15.6548 14.674 15.5127C14.2719 15.1938 13.9718 14.7865 13.6783 14.3537C13.2173 14.8109 12.699 15.1759 12.0978 15.4144C11.08 15.8184 10.0597 15.8203 9.05268 15.3913C8.0555 14.9666 7.55362 14.1914 7.53104 13.111C7.52117 12.635 7.55974 12.1609 7.68909 11.6994L7.68862 11.6999ZM17.6373 17.1519C16.7982 17.9262 15.818 18.4534 14.7385 18.8039C13.8575 19.0898 12.9511 19.2187 11.7446 19.2277C9.43838 19.198 7.28363 18.1994 5.51881 16.3269C5.40734 16.2084 5.29351 16.0889 5.22766 15.9351C5.20273 15.8772 5.17121 15.8166 5.22248 15.7615C5.27234 15.7084 5.3396 15.7225 5.39699 15.7488C5.46707 15.7808 5.53528 15.818 5.59972 15.8608C7.28645 16.9817 9.11759 17.7258 11.1392 17.9473C12.8608 18.1359 14.5216 17.8349 16.1373 17.2465C16.547 17.0974 16.9487 16.9276 17.3344 16.7234C17.4699 16.6519 17.6119 16.5992 17.7121 16.7366C17.8161 16.8791 17.7714 17.0287 17.6373 17.1524V17.1519ZM18.167 17.9774C18.1397 18.0047 18.111 18.0334 18.0781 18.0532C18.0151 18.0913 17.9534 18.1736 17.8735 18.1157C17.8043 18.0659 17.8471 17.984 17.8678 17.92C17.9525 17.6613 18.0442 17.405 18.1289 17.1468C18.1971 16.9393 18.2531 16.7281 18.2385 16.5061C18.2277 16.3368 18.1543 16.2399 17.9652 16.2258C17.6463 16.2023 17.3288 16.1693 16.9628 16.2103C16.8302 16.2178 16.6515 16.2286 16.4722 16.2366C16.4229 16.2389 16.3523 16.2785 16.3311 16.2046C16.3147 16.1472 16.3716 16.1072 16.412 16.072C16.651 15.8617 16.9313 15.7286 17.2385 15.6566C17.7328 15.5409 18.2272 15.5635 18.7201 15.6731C18.8561 15.7032 18.9384 15.7691 18.9454 15.9238C18.9807 16.7211 18.7342 17.4092 18.167 17.977V17.9774Z" fill="white"/>
</g>
<defs>
<clipPath id="clip0_2120_175">
<rect width="24" height="24" fill="white"/>
</clipPath>
</defs>
</svg>
