<svg width="338" height="234" viewBox="0 0 338 234" fill="none" xmlns="http://www.w3.org/2000/svg">
<g clip-path="url(#clip0_2120_4)">
<path d="M338 134.186V106.165H325.662V69.3455H294.381V106.165H276.931C272.121 104.009 266.35 102.924 259.609 102.924C253.235 102.924 247.704 103.929 243.012 105.935C238.32 107.941 234.438 110.722 231.371 114.273C228.3 117.824 226.01 121.954 224.507 126.661C224.38 127.06 224.262 127.469 224.149 127.873C223.787 126.195 223.358 124.627 222.859 123.184C221.059 118.012 218.515 113.921 215.213 110.91C211.91 107.898 207.972 105.813 203.397 104.657C198.818 103.497 193.811 102.919 188.365 102.919C184.77 102.919 180.893 103.422 176.724 104.422C172.555 105.428 168.673 107.433 165.083 110.445C161.488 113.456 158.478 117.702 156.047 123.18C154.248 127.234 153.117 132.279 152.651 138.311C152.443 137.005 152.217 135.741 151.967 134.529C150.403 126.886 148.029 120.713 144.844 116.002C141.655 111.295 137.721 107.936 133.029 105.93C128.337 103.924 122.863 102.919 116.607 102.919C109.54 102.919 103.487 104.117 98.4458 106.508C93.405 108.904 89.264 112.723 86.0229 117.97C82.777 123.222 80.4026 130.01 78.8998 138.348C78.8197 138.785 78.7444 139.236 78.669 139.682C78.4994 138.386 78.3157 137.127 78.1178 135.915C76.7846 127.811 74.9049 121.324 72.4693 116.462C70.0384 111.6 67.0234 108.124 63.4336 106.043C59.8438 103.957 55.7877 102.914 51.2698 102.914C46.752 102.914 42.8984 104.187 39.3651 106.733C35.8319 109.28 33.2549 113.799 31.6344 120.281H31.2858V66.0901H0V231.44H30.2352V214.303H30.5838C32.553 221.251 35.2147 226.268 38.5784 229.354C41.9373 232.44 46.3986 233.986 51.9576 233.986C62.3831 233.986 69.6804 228.509 73.8543 217.544C75.8377 212.325 77.3499 205.707 78.391 197.688C78.4664 198.214 78.5465 198.735 78.6313 199.252C79.9598 207.59 82.1928 214.345 85.3209 219.517C88.449 224.689 92.5617 228.396 97.659 230.632C102.756 232.868 109.069 233.991 116.602 233.991C129.576 233.991 138.904 230.092 144.581 222.294C146.766 219.287 148.547 215.712 149.928 211.569C149.998 211.94 150.064 212.316 150.14 212.682C151.068 217.164 152.57 221.021 154.657 224.262C156.744 227.503 159.434 229.937 162.737 231.557C166.039 233.178 170.062 233.991 174.816 233.991C179.569 233.991 183.998 232.6 187.762 229.824C191.526 227.043 194.277 222.876 196.015 217.319H196.364C196.595 219.945 196.826 222.416 197.061 224.732C197.292 227.048 197.697 229.288 198.277 231.449H228.512C227.235 228.208 226.425 224.351 226.081 219.87C225.954 218.24 225.85 216.516 225.77 214.707C227.094 218.103 228.785 221.068 230.858 223.576C236.591 230.524 246.004 233.995 259.096 233.995C265.003 233.995 270.303 233.07 274.995 231.214C279.687 229.364 283.626 226.583 286.81 222.876C289.995 219.17 292.459 214.773 294.197 209.676C294.343 209.244 294.48 208.798 294.612 208.356C294.847 211.964 295.262 215.069 295.865 217.662C296.85 221.908 298.414 225.112 300.557 227.273C302.701 229.439 305.452 230.787 308.811 231.327C312.17 231.867 316.221 232.14 320.975 232.14C323.636 232.14 326.42 232.022 329.318 231.792C332.21 231.562 335.108 231.445 338.005 231.445V203.654H333.138C330.59 203.654 328.705 202.921 327.49 201.455C326.274 199.99 325.667 197.481 325.667 193.93V134.181H338.005L338 134.186ZM48.4809 185.601C48.2453 190.082 47.8119 193.671 47.1759 196.368C46.54 199.069 45.6402 200.962 44.4813 202.042C43.3224 203.123 41.8148 203.663 39.9634 203.663C38.2251 203.663 36.7741 203.123 35.6199 202.042C34.461 200.962 33.5612 199.074 32.9252 196.368C32.2892 193.667 31.8511 190.078 31.6202 185.601C31.3847 181.124 31.2716 175.567 31.2716 168.929C31.2716 162.292 31.3847 156.504 31.6202 152.023C31.8511 147.546 32.2845 143.957 32.9252 141.256C33.5612 138.555 34.461 136.662 35.6199 135.581C36.7788 134.501 38.2251 133.961 39.9634 133.961C41.8148 133.961 43.3224 134.505 44.4813 135.581C45.6355 136.662 46.5353 138.555 47.1759 141.256C47.8119 143.957 48.2453 147.546 48.4809 152.023C48.7117 156.504 48.8295 162.137 48.8295 168.929C48.8295 175.722 48.7117 181.129 48.4809 185.601ZM107.91 147.621C107.91 140.983 108.518 136.121 109.733 133.03C110.949 129.944 113.177 128.399 116.423 128.399C119.669 128.399 122.071 129.944 123.287 133.03C124.502 136.121 125.11 140.983 125.11 147.621V153.178H107.905V147.621H107.91ZM125.284 187.452C125.284 195.945 124.502 201.695 122.938 204.706C121.374 207.717 119.202 209.22 116.423 209.22C114.223 209.22 112.254 208.102 110.515 205.862C108.777 203.626 107.91 199.111 107.91 192.314V175.872H152.033C151.2 177.93 150.535 180.166 150.05 182.59C149.744 184.112 149.494 185.737 149.296 187.452H125.289H125.284ZM196.354 186.061C196.354 193.009 195.601 198.181 194.093 201.577C192.586 204.974 190.098 206.674 186.622 206.674C184.304 206.674 182.452 205.439 181.063 202.968C179.673 200.502 178.976 197.18 178.976 193.009C178.976 188.838 179.437 185.484 180.365 182.937C181.293 180.391 182.971 178.343 185.406 176.802C187.724 175.412 189.839 174.529 191.747 174.139C193.66 173.754 195.078 172.716 196.006 171.01H196.354V186.061ZM194.272 148.894C192.882 150.98 190.508 152.563 187.149 153.643L174.811 157.58C169.827 159.125 165.658 161.019 162.299 163.255C158.94 165.495 156.273 168.196 154.309 171.358V163.142C154.309 156.476 154.04 150.458 153.508 145.08H179.503C179.616 138.442 180.37 134.003 181.76 131.762C183.15 129.526 185.35 128.403 188.365 128.403C193.693 128.403 196.359 132.265 196.359 139.983C196.359 143.844 195.662 146.813 194.272 148.899V148.894ZM264.909 206.439C263.109 208.29 260.999 209.22 258.568 209.22C255.671 209.22 253.471 207.755 251.963 204.819C251.153 203.428 250.573 201.657 250.225 199.492C249.876 197.331 249.702 195.015 249.702 192.544H225.549V160.967C225.577 161.033 225.605 161.098 225.633 161.164C227.895 166.026 230.698 169.93 234.061 172.861C237.42 175.797 241.038 178.113 244.92 179.809C248.802 181.509 252.42 183.13 255.779 184.671C259.138 186.216 261.946 187.992 264.207 189.998C266.464 192.008 267.594 194.86 267.594 198.566C267.594 201.963 266.694 204.589 264.9 206.439H264.909ZM293.406 173.439C291.145 168.577 288.337 164.72 284.978 161.859C281.614 159.003 277.996 156.805 274.119 155.259C270.237 153.719 266.614 152.248 263.26 150.858C259.896 149.467 257.093 147.889 254.832 146.108C252.576 144.338 251.445 141.674 251.445 138.118C251.445 135.032 252.199 132.641 253.706 130.94C255.209 129.244 257.122 128.394 259.439 128.394C262.101 128.394 264.16 129.362 265.606 131.288C267.052 133.218 267.778 136.887 267.778 142.289H294.386V175.844C294.089 175.003 293.764 174.2 293.41 173.439H293.406Z" fill="white"/>
<path d="M70.7499 92.5655C59.9005 92.5655 53.4417 87.3371 51.2464 81.2632H51.1239L50.6387 81.747C53.3192 90.4986 61.4881 98.7616 73.553 98.7616C88.3031 98.7616 100.858 91.3489 104.391 71.9009L115.726 10.2782H115.358L105.484 15.0181C102.073 10.4004 96.4625 8.45557 90.9789 8.45557C70.1328 8.45557 52.9471 29.2376 52.9471 54.6421C52.9471 67.1611 59.1656 74.3343 69.4026 74.3343C79.6396 74.3343 88.5386 65.2163 95.8548 52.2134L91.3464 74.7007C88.7883 87.8257 80.7419 92.5702 70.7452 92.5702L70.7499 92.5655ZM74.6506 68.016C68.5546 68.016 65.7516 63.6426 65.7516 53.6744C65.7516 33.254 78.1839 10.2829 92.0813 10.2829C97.6874 10.2829 101.711 13.3222 102.318 19.1566L96.5897 48.5728C90.0085 60.4858 82.0846 68.0207 74.6506 68.0207V68.016Z" fill="white"/>
<path d="M138.966 -0.00012207H138.358C132.997 3.28348 128.107 5.79198 121.158 6.88651L121.177 7.08381C123.858 9.75673 125.073 11.6686 124.098 16.897L113.371 77.7916C111.298 89.4604 115.199 94.6888 122.025 94.6888C127.268 94.6888 131.287 92.0158 134.702 85.5708L134.58 85.2044H134.457C132.262 88.488 130.071 89.5778 127.999 89.5778C125.073 89.5778 123.368 87.5109 124.465 81.4322L138.966 -0.00012207Z" fill="white"/>
<path d="M161.3 95.8491C182.024 95.8491 198.234 76.279 198.234 55.6191C198.234 40.1829 188.237 29.9751 173.002 29.9751C152.278 29.9751 135.945 49.7847 135.945 70.4494C135.945 86.0077 145.82 95.8538 161.3 95.8538V95.8491ZM172.635 31.5488C180.921 31.5488 186.165 38.4777 186.165 50.0243C186.165 67.4053 176.168 94.3882 161.54 94.3882C153.371 94.3882 147.888 87.7035 147.888 76.0348C147.888 58.7759 158.125 31.5488 172.63 31.5488H172.635Z" fill="white"/>
<path d="M221.029 31.8447L221.151 31.1166H198.355L198.232 31.8447C201.643 34.1559 202.618 36.7067 203.594 41.4465L212.978 93.8338H223.097L242.601 54.6937L245.771 93.8338H256.253C270.028 76.3307 285.141 52.265 288.066 34.1559C288.189 33.0614 288.434 31.7226 288.434 31.1166H279.902C279.78 50.5645 268.93 74.8744 256.376 91.1609L253.45 42.5411C253.083 36.951 253.935 33.7895 259.179 31.8447L259.301 31.1166H236.387L236.264 31.8447C239.798 34.3955 241.14 36.4624 241.625 41.4465L242.356 51.4148L223.582 89.3383L215.296 42.5411C214.198 36.2228 216.271 33.7895 221.024 31.8447H221.029Z" fill="white"/>
</g>
<defs>
<clipPath id="clip0_2120_4">
<rect width="338" height="234" fill="white"/>
</clipPath>
</defs>
</svg>
